<svg xmlns="http://www.w3.org/2000/svg" viewBox="0 0 192 32"><path fill="#777" d="M84 13.6h-2.8v-1.7c0-.6.5-.8.8-.8h2V8.6h-2.6c-2.9 0-3.7 2-3.7 3.4v1.8H76v2.8h1.7v8h3.5v-8h2.5c0-.1.3-3 .3-3zm-26.2-3.4c-.8.3-1.5.6-2.3.6.8-.5 1.4-1.4 1.7-2.3-.8.5-1.5.8-2.5 1.1-.7-.7-1.7-1.2-2.9-1.2-2.1 0-4 1.8-4 4.1 0 .3 0 .6.2.9-3.2-.2-6.1-1.8-8.1-4.3-.3.5-.5 1.2-.5 2 0 1.4.8 2.8 1.7 3.4-.6 0-1.2-.2-1.8-.5 0 2 1.4 3.7 3.2 4-.3.2-.6.2-1.1.2h-.8c.5 1.7 2 2.8 3.7 2.9-1.4 1.1-3.1 1.7-4.9 1.7h-.9c1.7 1.2 3.8 1.8 6.1 1.8 7.2 0 11.2-6.3 11.2-11.6v-.5c.8-.7 1.5-1.3 2-2.3zm86.7-2.3c-5.1 0-7.5 3.4-7.5 6.1 0 1.7.6 3.2 2.1 3.7.3.2.5 0 .5-.3 0-.2.2-.6.2-.8 0-.3 0-.3-.2-.6-.3-.3-.6-.9-.6-1.7 0-2.5 2-4.7 5.2-4.7 2.8 0 4.4 1.5 4.4 3.7 0 2.8-1.4 5.2-3.4 5.2-1.1 0-2-.9-1.7-1.8.3-1.2.9-2.6.9-3.5 0-.8-.5-1.5-1.4-1.5-1.1 0-2 1.1-2 2.6 0 .9.3 1.5.3 1.5s-1.2 4.6-1.4 5.4c-.5 1.5 0 3.5 0 3.7s.2.2.3 0 1.4-1.7 1.8-3.2c.2-.5.8-2.8.8-2.8.3.6 1.4 1.2 2.6 1.2 3.4 0 5.7-2.9 5.7-6.7 0-2.7-2.6-5.5-6.6-5.5zM11.7 15.3V18H16c-.6 3.4-5.1 4.4-7.4 2.3-2.3-2-2.1-6.1.3-8 1.7-1.4 4.1-1.1 6 .2.6-.6 1.4-1.4 2-2.1-1.5-1.1-3.4-2-5.2-1.8-3.8-.2-7.5 3.4-7.5 7.5-.3 3.4 1.8 6.6 4.7 7.8s6.7.3 8.6-2.5c1.2-1.7 1.5-4 1.4-6.1h-7.2zm14.1 0V13h-2.1v2.3h-2.1v2.3h2.1v2.3h2.1v-2.3H28v-2.3h-2.2z"/><g fill="#777"><path d="M112.1 12.2c-2.3 0-4.1 1.8-4.1 4.1s1.8 4.1 4.1 4.1 4.1-1.8 4.1-4.1-1.8-4.1-4.1-4.1zm0 6.9c-1.5 0-2.8-1.2-2.8-2.8 0-1.5 1.2-2.8 2.8-2.8s2.8 1.2 2.8 2.8c0 1.6-1.4 2.8-2.8 2.8z"/><circle cx="116.4" cy="12.1" r=".9"/><path d="M118.9 9.6c-.9-.9-2-1.4-3.4-1.4h-6.7c-2.9 0-4.7 1.8-4.7 4.7v6.7c0 1.4.5 2.6 1.4 3.5.9.9 2 1.2 3.4 1.2h6.7c1.4 0 2.6-.5 3.4-1.2.9-.9 1.4-2 1.4-3.5V13c-.2-1.2-.6-2.5-1.5-3.4zm-.2 10.3c0 1.1-.3 1.8-.9 2.5s-1.4.9-2.5.9h-6.7c-.9 0-1.8-.3-2.5-.9-.6-.6-.9-1.4-.9-2.5v-6.7c0-.9.3-1.8.9-2.5.8-.6 1.7-.9 2.6-.9h6.7c.9 0 1.8.3 2.5.9s.9 1.4.9 2.3l-.1 6.9z"/></g><path fill="#777" d="M167.7 11.2h3.8v12.1h-3.8V11.2zm1.8-1.7c-1.4 0-2.1-.9-2.1-2.1s.9-2.1 2.1-2.1c1.4 0 2.1.9 2.1 2.1.2 1.2-.7 2.1-2.1 2.1zm16 13.8h-3.8v-6.4c0-1.7-.6-2.8-2-2.8-1.1 0-1.7.8-2 1.5-.2.3-.2.6-.2.9v6.7h-3.8v-12h3.8v1.7c.5-.8 1.4-2 3.5-2 2.6 0 4.4 1.7 4.4 5.5.1 0 .1 6.9.1 6.9z"/></svg>